<svg width="64" height="64" viewBox="0 0 64 64" fill="none" xmlns="http://www.w3.org/2000/svg">
  <rect width="64" height="64" rx="12" fill="#2563EB"/>
  <path d="M16 20C16 18.8954 16.8954 18 18 18H24C25.1046 18 26 18.8954 26 20V26C26 27.1046 25.1046 28 24 28H18C16.8954 28 16 27.1046 16 26V20Z" fill="white"/>
  <path d="M16 36C16 34.8954 16.8954 34 18 34H24C25.1046 34 26 34.8954 26 36V42C26 43.1046 25.1046 44 24 44H18C16.8954 44 16 43.1046 16 42V36Z" fill="white"/>
  <path d="M32 20C32 18.8954 32.8954 18 34 18H46C47.1046 18 48 18.8954 48 20V26C48 27.1046 47.1046 28 46 28H34C32.8954 28 32 27.1046 32 26V20Z" fill="white" opacity="0.8"/>
  <path d="M32 36C32 34.8954 32.8954 34 34 34H46C47.1046 34 48 34.8954 48 36V42C48 43.1046 47.1046 44 46 44H34C32.8954 44 32 43.1046 32 42V36Z" fill="white" opacity="0.6"/>
</svg>

